<svg width="232" height="58" viewBox="0 0 232 58" fill="none" xmlns="http://www.w3.org/2000/svg">
<path d="M3.31307 39.4939L2.70597 40.3882C1.31237 42.4549 0.796686 44.9904 1.27242 47.4372C1.74816 49.884 3.17632 52.0416 5.24276 53.4355C6.26582 54.1263 7.415 54.6086 8.62459 54.855C9.83417 55.1013 11.0805 55.1068 12.2922 54.8712C13.5039 54.6356 14.6573 54.1635 15.6865 53.4819C16.7156 52.8003 17.6004 51.9225 18.2901 50.8987L23.6185 43.001C23.6185 43.001 30.5026 34.0245 38.9695 41.0279C34.2354 36.4682 27.9983 33.7957 21.4316 33.5132C14.8649 33.2307 8.42124 35.3576 3.31307 39.4939Z" fill="url(#paint0_linear_474_675)"/>
<path d="M61.8937 40.383L40.0976 8.07104C39.2346 6.79547 38.072 5.7509 36.7117 5.02883C35.3514 4.30676 33.8348 3.9292 32.2947 3.9292C30.7546 3.9292 29.238 4.30676 27.8777 5.02883C26.5174 5.7509 25.3548 6.79547 24.4918 8.07104L2.69035 40.3884C1.29675 42.4551 0.781061 44.9906 1.2568 47.4374C1.73253 49.8842 3.16069 52.0418 5.22713 53.4357C6.2502 54.1265 7.39938 54.6088 8.60896 54.8551C9.81855 55.1015 11.0648 55.107 12.2766 54.8714C13.4883 54.6358 14.6417 54.1637 15.6708 53.4821C16.7 52.8004 17.5848 51.9226 18.2745 50.8989L23.6028 43.0011C23.6028 43.0011 31.6199 32.5449 40.9866 43.0011L46.315 50.8989C47.7097 52.9644 49.8678 54.3915 52.3145 54.8662C54.7612 55.3409 57.2963 54.8244 59.3623 53.4303C61.4278 52.0356 62.8549 49.8775 63.3296 47.4308C63.8043 44.9841 63.2878 42.449 61.8937 40.383Z" fill="url(#paint1_linear_474_675)"/>
<path d="M97.7744 45.542H107.377L92.9262 12.9102H83.8359L69.4313 45.542H78.8479L81.4119 39.2021H95.2105L97.7744 45.542ZM84.1157 32.396L88.3112 21.9539L92.5067 32.396H84.1157ZM118.531 45.9615C126.735 45.9615 131.024 42.3254 131.024 37.6637C131.024 27.6411 116.153 31.4171 116.153 27.9208C116.153 26.9885 117.225 26.1494 120.209 26.1494C122.446 26.1494 124.964 26.6156 127.481 28.0141L130.138 22.0005C127.621 20.602 123.705 19.8561 120.162 19.8561C112.237 19.8561 107.855 23.4922 107.855 28.2471C107.855 38.363 122.773 34.4938 122.773 37.8968C122.773 38.969 121.794 39.6217 118.81 39.6217C115.734 39.6217 112.33 38.7359 110 37.2908L107.342 43.351C109.813 44.8894 114.242 45.9615 118.531 45.9615ZM150.084 38.3164C149.338 38.8292 148.359 39.1089 147.381 39.1089C145.796 39.1089 144.723 38.0833 144.723 36.2186V27.8276H150.504V21.208H144.723V14.635H135.866V21.208H132.183V27.8276H135.866V36.3119C135.866 42.7916 139.642 45.9615 146.122 45.9615C148.453 45.9615 150.737 45.4954 152.275 44.5164L150.084 38.3164ZM164.128 23.3058V20.2757H155.691V45.542H164.548V33.9344C164.548 29.5058 167.019 27.6877 170.608 27.6877C171.261 27.6877 171.82 27.7344 172.613 27.8276V19.8561C168.883 19.8561 165.946 21.0215 164.128 23.3058ZM186.854 19.8561C182.892 19.8561 178.603 20.8817 175.713 22.793L178.696 28.8066C180.421 27.4547 183.125 26.6156 185.549 26.6156C189.045 26.6156 190.77 28.0607 190.91 30.6246H185.875C178.043 30.6246 174.64 33.5149 174.64 38.1765C174.64 42.5585 177.997 45.9615 184.057 45.9615C187.74 45.9615 190.257 44.7029 191.516 42.2788V45.542H199.767V31.5103C199.767 23.4922 195.059 19.8561 186.854 19.8561ZM186.528 40.3675C184.43 40.3675 183.218 39.2953 183.218 37.8036C183.218 36.2652 184.243 35.2397 187.087 35.2397H190.91V37.4307C190.21 39.4352 188.486 40.3675 186.528 40.3675ZM218.635 45.9615C224.369 45.9615 228.751 43.3976 230.475 39.0156L223.623 35.5194C222.411 37.8968 220.639 38.9224 218.588 38.9224C215.511 38.9224 213.087 36.778 213.087 32.8622C213.087 29.0396 215.511 26.8953 218.588 26.8953C220.639 26.8953 222.411 27.9208 223.623 30.2983L230.475 26.802C228.751 22.42 224.369 19.8561 218.635 19.8561C210.15 19.8561 204.137 25.2637 204.137 32.8622C204.137 40.554 210.15 45.9615 218.635 45.9615Z" fill="#111111"/>
<defs>
<linearGradient id="paint0_linear_474_675" x1="18.6641" y1="52.823" x2="21.1955" y2="34.6858" gradientUnits="userSpaceOnUse">
<stop stop-color="#D5CAFB"/>
<stop offset="0.92" stop-color="#705AFA"/>
</linearGradient>
<linearGradient id="paint1_linear_474_675" x1="6.22452" y1="19.091" x2="57.7415" y2="54.341" gradientUnits="userSpaceOnUse">
<stop offset="0.15" stop-color="#A392F4"/>
<stop offset="0.89" stop-color="#705AFA"/>
</linearGradient>
</defs>
</svg>
