<svg width="297" height="258" viewBox="0 0 297 258" fill="none" xmlns="http://www.w3.org/2000/svg">
<path fill-rule="evenodd" clip-rule="evenodd" d="M183.018 10.6039C222.729 17.0545 284.899 1.59938 295.203 40.5057C306.332 82.5295 242.822 103.63 216.896 138.53C205.4 154.004 200.215 171.309 187.362 185.673C163.053 212.839 146.815 254.821 110.471 257.464C68.8082 260.494 21.3322 237.429 5.09285 198.931C-10.7512 161.369 21.6329 123.281 38.1431 85.9982C51.3829 56.1005 61.0122 22.2652 90.0099 7.17456C118.625 -7.71721 151.185 5.43296 183.018 10.6039Z" fill="#C4C4C4"/>
<path fill-rule="evenodd" clip-rule="evenodd" d="M183.018 10.6039C222.729 17.0545 284.899 1.59938 295.203 40.5057C306.332 82.5295 242.822 103.63 216.896 138.53C205.4 154.004 200.215 171.309 187.362 185.673C163.053 212.839 146.815 254.821 110.471 257.464C68.8082 260.494 21.3322 237.429 5.09285 198.931C-10.7512 161.369 21.6329 123.281 38.1431 85.9982C51.3829 56.1005 61.0122 22.2652 90.0099 7.17456C118.625 -7.71721 151.185 5.43296 183.018 10.6039Z" fill="url(#paint0_linear_138_531)"/>
<defs>
<linearGradient id="paint0_linear_138_531" x1="52.2903" y1="-72.3139" x2="328.793" y2="128.303" gradientUnits="userSpaceOnUse">
<stop stop-color="#34C5F0"/>
<stop offset="1" stop-color="#0062AD"/>
</linearGradient>
</defs>
</svg>
