<svg width="650" height="381" viewBox="0 0 650 381" fill="none" xmlns="http://www.w3.org/2000/svg">
<path fill-rule="evenodd" clip-rule="evenodd" d="M312.212 75.2719C343.461 85.2691 376.537 79.4102 409.701 81.6138C478.097 86.1583 559.535 55.0248 610.722 95.1063C657.268 131.554 660.267 206.603 631.174 255.036C601.651 304.185 523.833 307.319 467.763 333.099C433.731 348.746 403.903 369.47 366.398 376.776C330.72 383.726 294.454 381.668 259.036 373.757C222.554 365.608 191.524 348.554 159.885 330.647C116.336 305.999 64.2579 289 39.0591 249.255C9.28173 202.287 -13.6957 143.166 9.47978 93.4133C32.69 43.5857 93.9098 3.82379 155.091 0.157486C215.819 -3.48169 255.022 56.9754 312.212 75.2719Z" fill="#C4C4C4"/>
<path fill-rule="evenodd" clip-rule="evenodd" d="M312.212 75.2719C343.461 85.2691 376.537 79.4102 409.701 81.6138C478.097 86.1583 559.535 55.0248 610.722 95.1063C657.268 131.554 660.267 206.603 631.174 255.036C601.651 304.185 523.833 307.319 467.763 333.099C433.731 348.746 403.903 369.47 366.398 376.776C330.72 383.726 294.454 381.668 259.036 373.757C222.554 365.608 191.524 348.554 159.885 330.647C116.336 305.999 64.2579 289 39.0591 249.255C9.28173 202.287 -13.6957 143.166 9.47978 93.4133C32.69 43.5857 93.9098 3.82379 155.091 0.157486C215.819 -3.48169 255.022 56.9754 312.212 75.2719Z" fill="url(#paint0_linear_138_653)"/>
<defs>
<linearGradient id="paint0_linear_138_653" x1="-47.534" y1="-32.4716" x2="591.513" y2="403.153" gradientUnits="userSpaceOnUse">
<stop stop-color="#34C5F0"/>
<stop offset="1" stop-color="#0062AD"/>
</linearGradient>
</defs>
</svg>
