<svg width="40" height="40" viewBox="0 0 40 40" fill="none" xmlns="http://www.w3.org/2000/svg">
<path d="M18.5696 6.66683C15.933 6.66683 14.5913 6.9485 13.3563 7.6085C12.3263 8.15041 11.4849 8.99187 10.943 10.0218C10.283 11.2552 10.0013 12.5985 10.0013 15.2335V24.7635C10.0013 27.4002 10.283 28.7418 10.943 29.9768C11.5046 31.0268 12.3063 31.8285 13.3563 32.3902C14.5896 33.0502 15.933 33.3318 18.5696 33.3318H21.433C24.0696 33.3318 25.4113 33.0502 26.6463 32.3902C27.6763 31.8482 28.5177 31.0068 29.0596 29.9768C29.7196 28.7435 30.0013 27.4002 30.0013 24.7635V15.2335C30.0013 12.5968 29.7196 11.2552 29.0596 10.0202C28.5177 8.9902 27.6763 8.14875 26.6463 7.60683C25.413 6.9485 24.0696 6.66683 21.4346 6.66683H18.568H18.5696ZM18.5696 3.3335H21.433C24.7896 3.3335 26.5896 3.79683 28.2196 4.6685C29.8301 5.52098 31.1472 6.83798 31.9996 8.4485C32.8713 10.0785 33.3346 11.8785 33.3346 15.2352V24.7652C33.3346 28.1218 32.8713 29.9218 31.9996 31.5518C31.1472 33.1623 29.8301 34.4793 28.2196 35.3318C26.5896 36.2035 24.7896 36.6668 21.433 36.6668H18.568C15.2113 36.6668 13.4113 36.2035 11.7813 35.3318C10.1708 34.4793 8.85378 33.1623 8.0013 31.5518C7.1313 29.9218 6.66797 28.1218 6.66797 24.7652V15.2335C6.66797 11.8768 7.1313 10.0768 8.00297 8.44683C8.85616 6.83669 10.1737 5.52027 11.7846 4.6685C13.413 3.79683 15.213 3.3335 18.5696 3.3335ZM18.3346 10.0002H21.668V18.3335H18.3346V10.0002Z" fill="#0062AD"/>
</svg>
