<svg width="377" height="468" viewBox="0 0 377 468" fill="none" xmlns="http://www.w3.org/2000/svg">
<path fill-rule="evenodd" clip-rule="evenodd" d="M33.6988 156.858C53.347 100.424 46.7247 5.50306 106.289 0.435241C170.626 -5.03867 185.163 93.294 229.55 140.195C249.231 160.99 273.211 173.025 290.92 195.522C324.409 238.068 381.647 272.617 376.169 326.464C369.888 388.191 323.938 451.711 263.444 465.567C204.423 479.086 157.031 421.918 106.737 388.179C66.4052 361.123 19.3847 338.336 4.76561 292.035C-9.66081 246.345 17.9487 202.096 33.6988 156.858Z" fill="#C4C4C4"/>
<path fill-rule="evenodd" clip-rule="evenodd" d="M33.6988 156.858C53.347 100.424 46.7247 5.50306 106.289 0.435241C170.626 -5.03867 185.163 93.294 229.55 140.195C249.231 160.99 273.211 173.025 290.92 195.522C324.409 238.068 381.647 272.617 376.169 326.464C369.888 388.191 323.938 451.711 263.444 465.567C204.423 479.086 157.031 421.918 106.737 388.179C66.4052 361.123 19.3847 338.336 4.76561 292.035C-9.66081 246.345 17.9487 202.096 33.6988 156.858Z" fill="url(#paint0_linear_448_72)"/>
<defs>
<linearGradient id="paint0_linear_448_72" x1="-121.215" y1="326.774" x2="243.363" y2="-26.1257" gradientUnits="userSpaceOnUse">
<stop stop-color="#34C5F0"/>
<stop offset="1" stop-color="#0062AD"/>
</linearGradient>
</defs>
</svg>
