<svg width="98" height="274" viewBox="0 0 98 274" fill="none" xmlns="http://www.w3.org/2000/svg">
<path fill-rule="evenodd" clip-rule="evenodd" d="M-24.1773 56.5079C1.67395 35.4178 26.29 -11.6592 56.0984 3.35395C88.2953 19.5701 66.4449 70.5844 73.8343 105.872C77.1107 121.518 84.9946 134.256 86.8352 150.134C90.316 180.163 107.43 213.336 89.0736 237.34C68.0315 264.857 27.5996 281.624 -5.22158 270.518C-37.244 259.683 -43.0588 218.634 -57.1072 187.877C-68.373 163.213 -84.0683 138.623 -77.4771 112.328C-70.9728 86.3805 -44.8999 73.414 -24.1773 56.5079Z" fill="#C4C4C4"/>
<path fill-rule="evenodd" clip-rule="evenodd" d="M-24.1773 56.5079C1.67395 35.4178 26.29 -11.6592 56.0984 3.35395C88.2953 19.5701 66.4449 70.5844 73.8343 105.872C77.1107 121.518 84.9946 134.256 86.8352 150.134C90.316 180.163 107.43 213.336 89.0736 237.34C68.0315 264.857 27.5996 281.624 -5.22158 270.518C-37.244 259.683 -43.0588 218.634 -57.1072 187.877C-68.373 163.213 -84.0683 138.623 -77.4771 112.328C-70.9728 86.3805 -44.8999 73.414 -24.1773 56.5079Z" fill="url(#paint0_linear_184_1161)"/>
<defs>
<linearGradient id="paint0_linear_184_1161" x1="-147.549" y1="91.998" x2="129.053" y2="30.8182" gradientUnits="userSpaceOnUse">
<stop stop-color="#34C5F0"/>
<stop offset="1" stop-color="#0062AD"/>
</linearGradient>
</defs>
</svg>
